<svg width="54" height="54" viewBox="0 0 54 54" fill="none" xmlns="http://www.w3.org/2000/svg">
<rect width="54" height="54" rx="6" fill="#06281C"/>
<g clip-path="url(#clip0_141_1136)">
<path d="M19.1708 14.0256C18.5555 15.4444 18.2667 16.8632 18.2667 18.2443C18.2667 22.8272 21.5061 26.5814 26.5535 26.5814C31.601 26.5814 34.8404 22.8272 34.8404 18.2443C34.8404 16.8632 34.5516 15.4444 33.949 14.0256C33.6727 13.4229 32.957 13.335 32.4799 13.8247L29.6674 16.6874L27.2692 13.5861C26.88 13.0839 26.2271 13.0839 25.8505 13.5861L23.4523 16.6874L20.6272 13.8247C20.1501 13.335 19.4344 13.4229 19.1708 14.0256ZM25.5491 39.3633C25.5491 39.9282 25.9886 40.3049 26.5535 40.3049C33.0449 40.3049 39.0089 36.2996 40.9677 30.6746C41.2439 29.9086 40.955 29.419 40.1389 29.419C33.7229 29.419 29.1024 33.1857 27.2442 37.9444L27.5706 38.3713V25.3133H25.5491V39.3633ZM23.829 34.5669C21.4685 31.5033 17.6892 29.419 12.9305 29.419C12.1144 29.419 11.8256 29.9086 12.1018 30.6746C13.7843 35.5463 18.4551 39.2125 23.9294 40.0789C23.8666 39.8654 23.829 39.6143 23.829 39.3633V34.5669Z" fill="white"/>
</g>
<defs>
<clipPath id="clip0_141_1136">
<rect width="29.0695" height="27.2336" fill="white" transform="translate(12 13.0713)"/>
</clipPath>
</defs>
</svg>
